# MagicaVoxel @ ephtracy

# material
mtllib PlayerManualTurret.mtl

# normals
vn -1 0 0
vn 1 0 0
vn 0 0 1
vn 0 0 -1
vn 0 -1 0
vn 0 1 0

# texcoords
vt 0.208984 0.5

# verts
v -3 2 6.5
v -3 2 4.5
v -3 2 -0.5
v -3 2 -4.5
v -3 6 6.5
v -3 6 4.5
v -3 6 -0.5
v -3 6 -4.5
f -4/1/1 -7/1/1 -8/1/1
f -3/1/1 -7/1/1 -4/1/1
f -2/1/1 -5/1/1 -6/1/1
f -1/1/1 -5/1/1 -2/1/1
v -2 0 -1.5
v -2 0 -3.5
v -2 2 -1.5
v -2 2 -3.5
v -2 3 4.5
v -2 3 -0.5
v -2 5 4.5
v -2 5 -0.5
f -6/1/1 -7/1/1 -8/1/1
f -5/1/1 -7/1/1 -6/1/1
f -2/1/1 -3/1/1 -4/1/1
f -1/1/1 -3/1/1 -2/1/1
v 0 3 6.5
v 0 3 5.5
v 0 5 6.5
v 0 5 5.5
f -2/1/1 -3/1/1 -4/1/1
f -1/1/1 -3/1/1 -2/1/1
v -2 3 6.5
v -2 3 5.5
v -2 5 6.5
v -2 5 5.5
f -4/1/2 -3/1/2 -2/1/2
f -2/1/2 -3/1/2 -1/1/2
v 0 0 -1.5
v 0 0 -3.5
v 0 2 -1.5
v 0 2 -3.5
v 0 3 4.5
v 0 3 -0.5
v 0 5 4.5
v 0 5 -0.5
f -8/1/2 -7/1/2 -6/1/2
f -6/1/2 -7/1/2 -5/1/2
f -4/1/2 -3/1/2 -2/1/2
f -2/1/2 -3/1/2 -1/1/2
v 1 2 6.5
v 1 2 4.5
v 1 2 -0.5
v 1 2 -4.5
v 1 6 6.5
v 1 6 4.5
v 1 6 -0.5
v 1 6 -4.5
f -8/1/2 -7/1/2 -4/1/2
f -4/1/2 -7/1/2 -3/1/2
f -6/1/2 -5/1/2 -2/1/2
f -2/1/2 -5/1/2 -1/1/2
v -3 2 6.5
v -3 6 6.5
v -2 3 6.5
v -2 5 6.5
v 0 3 6.5
v 0 5 6.5
v 1 2 6.5
v 1 6 6.5
f -6/1/3 -7/1/3 -8/1/3
f -5/1/3 -7/1/3 -6/1/3
f -4/1/3 -6/1/3 -8/1/3
f -3/1/3 -7/1/3 -5/1/3
f -2/1/3 -4/1/3 -8/1/3
f -2/1/3 -3/1/3 -4/1/3
f -1/1/3 -7/1/3 -3/1/3
f -1/1/3 -3/1/3 -2/1/3
v -2 3 5.5
v -2 5 5.5
v 0 3 5.5
v 0 5 5.5
f -2/1/3 -3/1/3 -4/1/3
f -1/1/3 -3/1/3 -2/1/3
v -3 2 -0.5
v -3 6 -0.5
v -2 3 -0.5
v -2 5 -0.5
v 0 3 -0.5
v 0 5 -0.5
v 1 2 -0.5
v 1 6 -0.5
f -6/1/3 -7/1/3 -8/1/3
f -5/1/3 -7/1/3 -6/1/3
f -4/1/3 -6/1/3 -8/1/3
f -3/1/3 -7/1/3 -5/1/3
f -2/1/3 -4/1/3 -8/1/3
f -2/1/3 -3/1/3 -4/1/3
f -1/1/3 -7/1/3 -3/1/3
f -1/1/3 -3/1/3 -2/1/3
v -2 0 -1.5
v -2 2 -1.5
v 0 0 -1.5
v 0 2 -1.5
f -2/1/3 -3/1/3 -4/1/3
f -1/1/3 -3/1/3 -2/1/3
v -3 2 4.5
v -3 6 4.5
v -2 3 4.5
v -2 5 4.5
v 0 3 4.5
v 0 5 4.5
v 1 2 4.5
v 1 6 4.5
f -8/1/4 -7/1/4 -6/1/4
f -6/1/4 -7/1/4 -5/1/4
f -8/1/4 -6/1/4 -4/1/4
f -5/1/4 -7/1/4 -3/1/4
f -8/1/4 -4/1/4 -2/1/4
f -4/1/4 -3/1/4 -2/1/4
f -3/1/4 -7/1/4 -1/1/4
f -2/1/4 -3/1/4 -1/1/4
v -2 0 -3.5
v -2 2 -3.5
v 0 0 -3.5
v 0 2 -3.5
f -4/1/4 -3/1/4 -2/1/4
f -2/1/4 -3/1/4 -1/1/4
v -3 2 -4.5
v -3 6 -4.5
v 1 2 -4.5
v 1 6 -4.5
f -4/1/4 -3/1/4 -2/1/4
f -2/1/4 -3/1/4 -1/1/4
v -2 0 -1.5
v 0 0 -1.5
v -2 0 -3.5
v 0 0 -3.5
f -2/1/5 -3/1/5 -4/1/5
f -1/1/5 -3/1/5 -2/1/5
v -3 2 6.5
v 1 2 6.5
v -3 2 4.5
v 1 2 4.5
v -3 2 -0.5
v 1 2 -0.5
v -2 2 -1.5
v 0 2 -1.5
v -2 2 -3.5
v 0 2 -3.5
v -3 2 -4.5
v 1 2 -4.5
f -10/1/5 -11/1/5 -12/1/5
f -9/1/5 -11/1/5 -10/1/5
f -6/1/5 -7/1/5 -8/1/5
f -5/1/5 -7/1/5 -6/1/5
f -4/1/5 -6/1/5 -8/1/5
f -3/1/5 -7/1/5 -5/1/5
f -2/1/5 -4/1/5 -8/1/5
f -2/1/5 -3/1/5 -4/1/5
f -1/1/5 -7/1/5 -3/1/5
f -1/1/5 -3/1/5 -2/1/5
v -2 3 4.5
v 0 3 4.5
v -2 3 -0.5
v 0 3 -0.5
f -2/1/5 -3/1/5 -4/1/5
f -1/1/5 -3/1/5 -2/1/5
v -2 5 6.5
v 0 5 6.5
v -2 5 5.5
v 0 5 5.5
f -2/1/5 -3/1/5 -4/1/5
f -1/1/5 -3/1/5 -2/1/5
v -2 3 6.5
v 0 3 6.5
v -2 3 5.5
v 0 3 5.5
f -4/1/6 -3/1/6 -2/1/6
f -2/1/6 -3/1/6 -1/1/6
v -2 5 4.5
v 0 5 4.5
v -2 5 -0.5
v 0 5 -0.5
f -4/1/6 -3/1/6 -2/1/6
f -2/1/6 -3/1/6 -1/1/6
v -3 6 6.5
v 1 6 6.5
v -3 6 4.5
v 1 6 4.5
v -3 6 -0.5
v 1 6 -0.5
v -3 6 -4.5
v 1 6 -4.5
f -8/1/6 -7/1/6 -6/1/6
f -6/1/6 -7/1/6 -5/1/6
f -4/1/6 -3/1/6 -2/1/6
f -2/1/6 -3/1/6 -1/1/6
