# MagicaVoxel @ ephtracy

# material
mtllib PlayerAutoTurret.mtl

# normals
vn -1 0 0
vn 1 0 0
vn 0 0 1
vn 0 0 -1
vn 0 -1 0
vn 0 1 0

# texcoords
vt 0.623047 0.5

# verts
v -5 3 3
v -5 3 -5
v -5 4 3
v -5 4 -5
f -2/1/1 -3/1/1 -4/1/1
f -1/1/1 -3/1/1 -2/1/1
v -4 2 7
v -4 2 -4
v -4 3 3
v -4 3 -4
v -4 4 3
v -4 4 -2
v -4 5 7
v -4 5 -2
f -6/1/1 -7/1/1 -8/1/1
f -5/1/1 -7/1/1 -6/1/1
f -4/1/1 -6/1/1 -8/1/1
f -2/1/1 -4/1/1 -8/1/1
f -2/1/1 -3/1/1 -4/1/1
f -1/1/1 -3/1/1 -2/1/1
v -3 1 1
v -3 1 -3
v -3 2 1
v -3 2 -3
f -2/1/1 -3/1/1 -4/1/1
f -1/1/1 -3/1/1 -2/1/1
v -2 0 -0
v -2 0 -2
v -2 1 -0
v -2 1 -2
f -2/1/1 -3/1/1 -4/1/1
f -1/1/1 -3/1/1 -2/1/1
v 0 2 7
v 0 2 2
v 0 3 3
v 0 3 2
v 0 4 3
v 0 4 -2
v 0 5 7
v 0 5 -2
f -6/1/1 -7/1/1 -8/1/1
f -5/1/1 -7/1/1 -6/1/1
f -4/1/1 -6/1/1 -8/1/1
f -2/1/1 -4/1/1 -8/1/1
f -2/1/1 -3/1/1 -4/1/1
f -1/1/1 -3/1/1 -2/1/1
v -2 2 7
v -2 2 2
v -2 3 3
v -2 3 2
v -2 4 3
v -2 4 -2
v -2 5 7
v -2 5 -2
f -8/1/2 -7/1/2 -6/1/2
f -6/1/2 -7/1/2 -5/1/2
f -8/1/2 -6/1/2 -4/1/2
f -8/1/2 -4/1/2 -2/1/2
f -4/1/2 -3/1/2 -2/1/2
f -2/1/2 -3/1/2 -1/1/2
v 0 0 -0
v 0 0 -2
v 0 1 -0
v 0 1 -2
f -4/1/2 -3/1/2 -2/1/2
f -2/1/2 -3/1/2 -1/1/2
v 1 1 1
v 1 1 -3
v 1 2 1
v 1 2 -3
f -4/1/2 -3/1/2 -2/1/2
f -2/1/2 -3/1/2 -1/1/2
v 2 2 7
v 2 2 -4
v 2 3 3
v 2 3 -4
v 2 4 3
v 2 4 -2
v 2 5 7
v 2 5 -2
f -8/1/2 -7/1/2 -6/1/2
f -6/1/2 -7/1/2 -5/1/2
f -8/1/2 -6/1/2 -4/1/2
f -8/1/2 -4/1/2 -2/1/2
f -4/1/2 -3/1/2 -2/1/2
f -2/1/2 -3/1/2 -1/1/2
v 3 3 3
v 3 3 -5
v 3 4 3
v 3 4 -5
f -4/1/2 -3/1/2 -2/1/2
f -2/1/2 -3/1/2 -1/1/2
v -4 2 7
v -4 5 7
v -2 2 7
v -2 5 7
v 0 2 7
v 0 5 7
v 2 2 7
v 2 5 7
f -6/1/3 -7/1/3 -8/1/3
f -5/1/3 -7/1/3 -6/1/3
f -2/1/3 -3/1/3 -4/1/3
f -1/1/3 -3/1/3 -2/1/3
v -5 3 3
v -5 4 3
v -4 3 3
v -4 4 3
v -2 3 3
v -2 4 3
v 0 3 3
v 0 4 3
v 2 3 3
v 2 4 3
v 3 3 3
v 3 4 3
f -10/1/3 -11/1/3 -12/1/3
f -9/1/3 -11/1/3 -10/1/3
f -6/1/3 -7/1/3 -8/1/3
f -5/1/3 -7/1/3 -6/1/3
f -2/1/3 -3/1/3 -4/1/3
f -1/1/3 -3/1/3 -2/1/3
v -2 2 2
v -2 3 2
v 0 2 2
v 0 3 2
f -2/1/3 -3/1/3 -4/1/3
f -1/1/3 -3/1/3 -2/1/3
v -3 1 1
v -3 2 1
v 1 1 1
v 1 2 1
f -2/1/3 -3/1/3 -4/1/3
f -1/1/3 -3/1/3 -2/1/3
v -2 0 -0
v -2 1 -0
v 0 0 -0
v 0 1 -0
f -2/1/3 -3/1/3 -4/1/3
f -1/1/3 -3/1/3 -2/1/3
v -4 4 -2
v -4 5 -2
v -2 0 -2
v -2 1 -2
v -2 4 -2
v -2 5 -2
v 0 0 -2
v 0 1 -2
v 0 4 -2
v 0 5 -2
v 2 4 -2
v 2 5 -2
f -12/1/4 -11/1/4 -8/1/4
f -8/1/4 -11/1/4 -7/1/4
f -10/1/4 -9/1/4 -6/1/4
f -6/1/4 -9/1/4 -5/1/4
f -4/1/4 -3/1/4 -2/1/4
f -2/1/4 -3/1/4 -1/1/4
v -3 1 -3
v -3 2 -3
v 1 1 -3
v 1 2 -3
f -4/1/4 -3/1/4 -2/1/4
f -2/1/4 -3/1/4 -1/1/4
v -4 2 -4
v -4 3 -4
v 2 2 -4
v 2 3 -4
f -4/1/4 -3/1/4 -2/1/4
f -2/1/4 -3/1/4 -1/1/4
v -5 3 -5
v -5 4 -5
v 3 3 -5
v 3 4 -5
f -4/1/4 -3/1/4 -2/1/4
f -2/1/4 -3/1/4 -1/1/4
v -2 0 -0
v 0 0 -0
v -2 0 -2
v 0 0 -2
f -2/1/5 -3/1/5 -4/1/5
f -1/1/5 -3/1/5 -2/1/5
v -3 1 1
v 1 1 1
v -2 1 -0
v 0 1 -0
v -2 1 -2
v 0 1 -2
v -3 1 -3
v 1 1 -3
f -6/1/5 -7/1/5 -8/1/5
f -5/1/5 -7/1/5 -6/1/5
f -4/1/5 -6/1/5 -8/1/5
f -3/1/5 -7/1/5 -5/1/5
f -2/1/5 -4/1/5 -8/1/5
f -2/1/5 -3/1/5 -4/1/5
f -1/1/5 -7/1/5 -3/1/5
f -1/1/5 -3/1/5 -2/1/5
v -4 2 7
v -2 2 7
v 0 2 7
v 2 2 7
v -2 2 2
v 0 2 2
v -3 2 1
v 1 2 1
v -3 2 -3
v 1 2 -3
v -4 2 -4
v 2 2 -4
f -8/1/5 -11/1/5 -12/1/5
f -7/1/5 -9/1/5 -10/1/5
f -6/1/5 -8/1/5 -12/1/5
f -6/1/5 -7/1/5 -8/1/5
f -5/1/5 -9/1/5 -7/1/5
f -5/1/5 -7/1/5 -6/1/5
f -4/1/5 -6/1/5 -12/1/5
f -3/1/5 -9/1/5 -5/1/5
f -2/1/5 -4/1/5 -12/1/5
f -2/1/5 -3/1/5 -4/1/5
f -1/1/5 -9/1/5 -3/1/5
f -1/1/5 -3/1/5 -2/1/5
v -5 3 3
v -4 3 3
v -2 3 3
v 0 3 3
v 2 3 3
v 3 3 3
v -2 3 2
v 0 3 2
v -4 3 -4
v 2 3 -4
v -5 3 -5
v 3 3 -5
f -6/1/5 -9/1/5 -10/1/5
f -5/1/5 -9/1/5 -6/1/5
f -4/1/5 -11/1/5 -12/1/5
f -3/1/5 -7/1/5 -8/1/5
f -2/1/5 -4/1/5 -12/1/5
f -2/1/5 -3/1/5 -4/1/5
f -1/1/5 -7/1/5 -3/1/5
f -1/1/5 -3/1/5 -2/1/5
v -5 4 3
v -4 4 3
v -2 4 3
v 0 4 3
v 2 4 3
v 3 4 3
v -4 4 -2
v -2 4 -2
v 0 4 -2
v 2 4 -2
v -5 4 -5
v 3 4 -5
f -12/1/6 -11/1/6 -6/1/6
f -10/1/6 -9/1/6 -5/1/6
f -5/1/6 -9/1/6 -4/1/6
f -8/1/6 -7/1/6 -3/1/6
f -5/1/6 -4/1/6 -2/1/6
f -4/1/6 -3/1/6 -2/1/6
f -12/1/6 -6/1/6 -2/1/6
f -6/1/6 -5/1/6 -2/1/6
f -3/1/6 -7/1/6 -1/1/6
f -2/1/6 -3/1/6 -1/1/6
v -4 5 7
v -2 5 7
v 0 5 7
v 2 5 7
v -4 5 -2
v -2 5 -2
v 0 5 -2
v 2 5 -2
f -8/1/6 -7/1/6 -4/1/6
f -4/1/6 -7/1/6 -3/1/6
f -6/1/6 -5/1/6 -2/1/6
f -2/1/6 -5/1/6 -1/1/6
